<?xml version="1.0" standalone="no"?>
<!DOCTYPE svg PUBLIC "-//W3C//DTD SVG 20010904//EN"
 "http://www.w3.org/TR/2001/REC-SVG-20010904/DTD/svg10.dtd">
<svg version="1.0" xmlns="http://www.w3.org/2000/svg"
 width="512.000000pt" height="512.000000pt" viewBox="0 0 512.000000 512.000000"
 preserveAspectRatio="xMidYMid meet">
<metadata>
Created by potrace 1.14, written by Peter Selinger 2001-2017
</metadata>
<g transform="translate(0.000000,512.000000) scale(0.100000,-0.100000)"
fill="#000000" stroke="none">
<path d="M435 3799 c-19 -5 -66 -44 -123 -102 -98 -101 -107 -120 -77 -175 8
-15 267 -279 575 -586 l561 -560 -566 -566 c-312 -312 -571 -573 -576 -581 -5
-8 -9 -28 -9 -45 0 -26 16 -47 96 -127 53 -53 104 -99 115 -102 50 -16 80 11
767 698 677 678 682 683 682 723 0 40 -5 45 -683 723 -376 376 -694 689 -708
696 -16 8 -35 9 -54 4z"/>
<path d="M2058 1086 c-39 -19 -48 -53 -48 -179 0 -118 0 -119 29 -148 l30 -29
1405 0 1405 0 28 24 c27 24 28 26 29 148 1 67 -2 133 -7 145 -19 53 44 50
-1457 50 -995 0 -1399 -3 -1414 -11z"/>
</g>
</svg>
